<svg width="14" height="8" viewBox="0 0 14 8" version="1.1" xmlns="http://www.w3.org/2000/svg" xmlns:xlink="http://www.w3.org/1999/xlink">
<title>if_icon-ios7-arrow-back_211686</title>
<desc>Created using Figma</desc>
<g id="Canvas" transform="translate(-3101 -959)">
<rect x="3101" y="959" width="14" height="8" fill="#F2F2F2"/>
<clipPath id="clip-0" clip-rule="evenodd">
<path d="M 2815 -502L 3939 -502L 3939 1346L 2815 1346L 2815 -502Z" fill="#FFFFFF"/>
</clipPath>
<g id="Restaurant / Desktop" clip-path="url(#clip-0)">
<path d="M 2815 -502L 3939 -502L 3939 1346L 2815 1346L 2815 -502Z" fill="#FFFFFF"/>
</g>
<g id="footer">
<g id="bg">
<use xlink:href="#path0_fill" transform="translate(2815 794)" fill="#262626"/>
</g>
<g id="language">
<g id="Rectangle 9">
<use xlink:href="#path1_fill" transform="translate(2896 943)" fill="#3B3B3B"/>
</g>
<g id="if_icon-ios7-arrow-back_211686">
<g id="Shape">
<use xlink:href="#path2_fill" transform="matrix(6.12323e-17 -1 1 6.12323e-17 3101 967)" fill="#FFFFFF"/>
</g>
</g>
</g>
</g>
</g>
<defs>
<path id="path0_fill" fill-rule="evenodd" d="M 0 0L 1124 0L 1124 552L 0 552L 0 0Z"/>
<path id="path1_fill" fill-rule="evenodd" d="M 0 2C 0 0.895431 0.895431 0 2 0L 225 0C 226.105 0 227 0.895431 227 2L 227 38C 227 39.1046 226.105 40 225 40L 2 40C 0.895432 40 0 39.1046 0 38L 0 2Z"/>
<path id="path2_fill" d="M 8 1.4175L 6.65417 0L 0 7L 6.65417 14L 8 12.5825L 2.69583 7L 8 1.4175Z"/>
</defs>
</svg>
