<svg width="24" height="24" viewBox="0 0 24 24" version="1.1" xmlns="http://www.w3.org/2000/svg" xmlns:xlink="http://www.w3.org/1999/xlink">
<title>instagram</title>
<desc>Created using Figma</desc>
<g id="Canvas" transform="translate(-4219 -1560)">
<rect x="4219" y="1560" width="24" height="24" fill="#F2F2F2"/>
<clipPath id="clip-0" clip-rule="evenodd">
<path d="M 4139 -502L 4907 -502L 4907 1856L 4139 1856L 4139 -502Z" fill="#FFFFFF"/>
</clipPath>
<g id="Restaurant / Tablet" clip-path="url(#clip-0)">
</g>
<g id="footer">
<g id="bg">
<use xlink:href="#path0_fill" transform="translate(4139 1304)" fill="#262626"/>
</g>
<g id="social">
<g id="ic/24/social/instagram">
<g id="Combined Shape">
<use xlink:href="#path1_fill" transform="translate(4222 1563)" fill="#FFFFFF"/>
</g>
<mask id="mask0_outline" mask-type="alpha">
<g id="Combined Shape">
<use xlink:href="#path2_fill" transform="translate(4226.36 1565.6)" fill="#FFFFFF"/>
</g>
</mask>
</g>
</g>
</g>
</g>
<defs>
<path id="path0_fill" fill-rule="evenodd" d="M 0 0L 768 0L 768 552L 0 552L 0 0Z"/>
<path id="path1_fill" fill-rule="evenodd" d="M 13.0327 0L 4.96729 0C 2.22852 0 0 2.22839 0 4.96741L 0 13.0326C 0 15.7717 2.22852 18 4.96729 18L 13.0327 18C 15.7715 18 18 15.7716 18 13.0326L 18 4.96741C 18 2.22839 15.7715 0 13.0327 0ZM 17 13.3579C 17 15.3662 15.3662 17 13.3579 17L 4.64209 17C 2.63379 17.0001 1 15.3662 1 13.3579L 1 4.64209C 1 2.63391 2.63379 1 4.64209 1L 13.3579 1C 15.3662 1 17 2.63391 17 4.64209L 17 13.3579ZM 4.36182 9.00024C 4.36182 6.44275 6.44238 4.36206 9 4.36206C 11.5576 4.36206 13.6382 6.44275 13.6382 9.00024C 13.6382 11.5576 11.5576 13.6382 9 13.6382C 6.44238 13.6382 4.36182 11.5576 4.36182 9.00024ZM 13.4351 2.83411C 13.5835 2.68506 13.79 2.59998 14 2.59998C 14.2109 2.59998 14.4175 2.68506 14.5659 2.83411C 14.6362 2.90393 14.6924 2.98669 14.7319 3.07666C 14.7764 3.17786 14.8003 3.28833 14.8003 3.40002C 14.8003 3.61011 14.7153 3.81665 14.5659 3.96582C 14.417 4.11414 14.2109 4.19995 14 4.19995C 13.79 4.19995 13.5835 4.11414 13.4351 3.96582C 13.3467 3.87732 13.2808 3.76868 13.2412 3.65112C 13.2144 3.57043 13.2002 3.4856 13.2002 3.40002C 13.2002 3.18909 13.2861 2.98254 13.4351 2.83411Z"/>
<path id="path2_fill" fill-rule="evenodd" d="M 9.07324 0.234131C 9.22168 0.085083 9.42822 0 9.63818 0C 9.84912 0 10.0557 0.085083 10.2041 0.234131C 10.2744 0.303955 10.3306 0.386719 10.3701 0.476685C 10.4146 0.577881 10.4385 0.688354 10.4385 0.800049C 10.4385 1.01013 10.3535 1.21667 10.2041 1.36584C 10.0552 1.51416 9.84912 1.59998 9.63818 1.59998C 9.42822 1.59998 9.22168 1.51416 9.07324 1.36584C 8.98486 1.27734 8.91895 1.1687 8.87939 1.05115C 8.85254 0.970459 8.83838 0.88562 8.83838 0.800049C 8.83838 0.589111 8.92432 0.382568 9.07324 0.234131ZM 4.63818 1.76208C 2.08057 1.76208 0 3.84277 0 6.40027C 0 8.95764 2.08057 11.0382 4.63818 11.0382C 7.1958 11.0382 9.27637 8.95764 9.27637 6.40027C 9.27637 3.84277 7.1958 1.76208 4.63818 1.76208ZM 4.63818 10.2397C 2.521 10.2397 0.79834 8.51733 0.79834 6.40002C 0.79834 4.28259 2.521 2.56006 4.63818 2.56006C 6.75586 2.56006 8.47852 4.28259 8.47852 6.40002C 8.47852 8.51733 6.75586 10.2397 4.63818 10.2397Z"/>
</defs>
</svg>
