<svg width="14" height="16" viewBox="0 0 14 16" version="1.1" xmlns="http://www.w3.org/2000/svg" xmlns:xlink="http://www.w3.org/1999/xlink">
<title>location</title>
<desc>Created using Figma</desc>
<g id="Canvas" transform="translate(-978 474)">
<rect x="978" y="-474" width="14" height="16" fill="#F2F2F2"/>
<clipPath id="clip-0" clip-rule="evenodd">
<path d="M 742 -502L 1510 -502L 1510 2250L 742 2250L 742 -502Z" fill="#FFFFFF"/>
</clipPath>
<g id="Stores / Tablet" clip-path="url(#clip-0)">
<g id="header">
<g id="Rectangle 5" filter="url(#filter0_d)">
<use xlink:href="#path0_fill" transform="translate(742 -502)" fill="#FFFFFF"/>
</g>
<g id="location">
<g id="Rectangle 8 Copy">
<mask id="mask0_outline_ins">
<use xlink:href="#path1_fill" fill="white" transform="translate(967 -486)"/>
</mask>
<g mask="url(#mask0_outline_ins)">
<use xlink:href="#path2_stroke_2x" transform="translate(967 -486)" fill="#E0E0E0"/>
</g>
</g>
<g id="location">
<g id="Combined-Shape">
<use xlink:href="#path3_stroke" transform="translate(979 -473.5)" fill="#262626"/>
</g>
<g id="Oval-3">
<use xlink:href="#path4_stroke" transform="translate(983 -469.5)" fill="#262626"/>
</g>
</g>
</g>
</g>
</g>
</g>
<defs>
<filter id="filter0_d" filterUnits="userSpaceOnUse" x="726" y="-518" width="800" height="104" color-interpolation-filters="sRGB">
<feFlood flood-opacity="0" result="BackgroundImageFix"/>
<feColorMatrix in="SourceAlpha" type="matrix" values="0 0 0 0 0 0 0 0 0 0 0 0 0 0 0 0 0 0 255 0"/>
<feOffset dx="0" dy="0"/>
<feGaussianBlur stdDeviation="8"/>
<feColorMatrix type="matrix" values="0 0 0 0 0.14902 0 0 0 0 0.14902 0 0 0 0 0.14902 0 0 0 0.16 0"/>
<feBlend mode="normal" in2="BackgroundImageFix" result="effect1_dropShadow"/>
<feBlend mode="normal" in="SourceGraphic" in2="effect1_dropShadow" result="shape"/>
</filter>
<path id="path0_fill" fill-rule="evenodd" d="M 0 0L 768 0L 768 72L 0 72L 0 0Z"/>
<path id="path1_fill" fill-rule="evenodd" d="M 0 2C 0 0.895431 0.895431 0 2 0L 213 0C 214.105 0 215 0.895431 215 2L 215 38C 215 39.1046 214.105 40 213 40L 2 40C 0.895429 40 0 39.1046 0 38L 0 2Z"/>
<path id="path2_stroke_2x" d="M 2 1L 213 1L 213 -1L 2 -1L 2 1ZM 214 2L 214 38L 216 38L 216 2L 214 2ZM 213 39L 2 39L 2 41L 213 41L 213 39ZM 1 38L 1 2L -1 2L -1 38L 1 38ZM 2 39C 1.44771 39 1 38.5523 1 38L -1 38C -1 39.6569 0.343143 41 2 41L 2 39ZM 214 38C 214 38.5523 213.552 39 213 39L 213 41C 214.657 41 216 39.6569 216 38L 214 38ZM 213 1C 213.552 1 214 1.44771 214 2L 216 2C 216 0.343147 214.657 -1 213 -1L 213 1ZM 2 -1C 0.343146 -1 -1 0.343147 -1 2L 1 2C 1 1.44772 1.44772 1 2 1L 2 -1Z"/>
<path id="path3_stroke" d="M 6 14.7859L 5.64303 15.136L 6 15.5L 6.35697 15.136L 6 14.7859ZM 10.2392 10.4636L 10.5962 10.8137L 10.2392 10.4636ZM 10.2392 1.79123L 10.5962 1.44113L 10.2392 1.79123ZM 1.76077 1.79123L 1.40381 1.44113L 1.76077 1.79123ZM 1.76077 10.4636L 2.11774 10.1135L 1.76077 10.4636ZM 6.35697 15.136L 10.5962 10.8137L 9.88226 10.1135L 5.64303 14.4358L 6.35697 15.136ZM 10.5962 10.8137C 13.1346 8.22554 13.1346 4.02929 10.5962 1.44113L 9.88226 2.14134C 12.0392 4.34061 12.0392 7.91423 9.88226 10.1135L 10.5962 10.8137ZM 10.5962 1.44113C 8.05779 -1.14704 3.94221 -1.14704 1.40381 1.44113L 2.11774 2.14134C 4.26412 -0.0471119 7.73588 -0.0471119 9.88226 2.14134L 10.5962 1.44113ZM 1.40381 1.44113C -1.1346 4.02929 -1.1346 8.22554 1.40381 10.8137L 2.11774 10.1135C -0.0392475 7.91423 -0.0392475 4.34061 2.11774 2.14134L 1.40381 1.44113ZM 1.40381 10.8137L 5.64303 15.136L 6.35697 14.4358L 2.11774 10.1135L 1.40381 10.8137Z"/>
<path id="path4_stroke" d="M 2 4.5C 3.38071 4.5 4.5 3.38071 4.5 2L 3.5 2C 3.5 2.82843 2.82843 3.5 2 3.5L 2 4.5ZM 4.5 2C 4.5 0.619288 3.38071 -0.5 2 -0.5L 2 0.5C 2.82843 0.5 3.5 1.17157 3.5 2L 4.5 2ZM 2 -0.5C 0.619288 -0.5 -0.5 0.619288 -0.5 2L 0.5 2C 0.5 1.17157 1.17157 0.5 2 0.5L 2 -0.5ZM -0.5 2C -0.5 3.38071 0.619288 4.5 2 4.5L 2 3.5C 1.17157 3.5 0.5 2.82843 0.5 2L -0.5 2Z"/>
</defs>
</svg>
