<svg width="24" height="24" viewBox="0 0 24 24" version="1.1" xmlns="http://www.w3.org/2000/svg" xmlns:xlink="http://www.w3.org/1999/xlink">
<title>twitter</title>
<desc>Created using Figma</desc>
<g id="Canvas" transform="translate(-4183 -1560)">
<rect x="4183" y="1560" width="24" height="24" fill="#F2F2F2"/>
<clipPath id="clip-0" clip-rule="evenodd">
<path d="M 4139 -502L 4907 -502L 4907 1856L 4139 1856L 4139 -502Z" fill="#FFFFFF"/>
</clipPath>
<g id="Restaurant / Tablet" clip-path="url(#clip-0)">
</g>
<g id="footer">
<g id="bg">
<use xlink:href="#path0_fill" transform="translate(4139 1304)" fill="#262626"/>
</g>
<g id="social">
<g id="ic/24/social/twitter">
<g id="Shape">
<use xlink:href="#path1_fill" transform="translate(4186 1564.5)" fill="#FFFFFF"/>
</g>
<mask id="mask0_outline" mask-type="alpha">
<g id="Shape">
<use xlink:href="#path1_fill" transform="translate(4186 1564.5)" fill="#FFFFFF"/>
</g>
</mask>
</g>
</g>
</g>
</g>
<defs>
<path id="path0_fill" fill-rule="evenodd" d="M 0 0L 768 0L 768 552L 0 552L 0 0Z"/>
<path id="path1_fill" fill-rule="evenodd" d="M 17.7251 1.595C 17.7901 1.61062 17.8511 1.64187 17.897 1.68863C 17.9883 1.78238 18.0191 1.93863 17.9888 2.06363C 17.7134 2.96975 17.1636 3.626 16.4917 3.96975L 16.4917 4.06338C 16.4917 10.0941 12.0918 15 6.71486 15C 3.69045 15 1.24611 14.4688 0.146015 13.5627C 0.0239444 13.4377 -0.0370908 13.2814 0.0239444 13.0939C 0.0551944 13.0141 0.11037 12.9424 0.181171 12.8914C 0.249042 12.8426 0.331073 12.8127 0.420917 12.8127C 2.22365 12.7814 3.38478 12.344 4.27053 11.8128C 2.55959 11.594 1.49025 10.7504 0.940448 9.15677C 0.879413 9.00052 0.940448 8.84427 1.06252 8.75052C 1.13381 8.69583 1.22609 8.673 1.31447 8.67593C 1.37795 8.67801 1.43947 8.69327 1.49025 8.71927C 1.8135 8.93948 2.13674 9.03555 2.49172 9.07303C 2.64016 9.08877 2.79445 9.09427 2.95705 9.09427C 1.79592 8.37564 0.726581 7.18814 0.298847 5.71951C 0.281757 5.63211 0.293476 5.53494 0.328632 5.45535C 0.355976 5.39273 0.397968 5.34097 0.451679 5.31338C 0.604511 5.21963 0.757343 5.25088 0.879413 5.34463C 1.21535 5.62576 1.58205 5.81326 2.13185 5.90701C 0.940448 4.65713 0.20705 2.8135 1.24611 0.782499L 1.42922 0.407499L 1.73488 0.719999C 3.62892 2.751 5.37062 3.6885 8.54787 4.31338L 8.54787 4.18838C 8.54787 1.90738 10.2896 0.0324989 12.4585 0.00124892C 13.314 0.00124892 14.5054 0.626249 14.9946 0.907499C 15.0064 0.907499 15.0181 0.912015 15.0279 0.915922C 15.044 0.922269 15.0557 0.926786 15.0557 0.907499C 15.6665 0.719999 16.3999 0.407499 17.2554 0.0324989C 17.3101 0.00454482 17.3706 -0.00461046 17.4292 0.00210341C 17.502 0.0104042 17.5713 0.043119 17.6221 0.0949989C 17.6807 0.155302 17.7149 0.228544 17.7154 0.314848C 17.7154 0.362577 17.7051 0.414335 17.6831 0.469999C 17.5303 0.907499 17.2857 1.37625 16.9195 1.81363L 17.5303 1.59488C 17.5913 1.57925 17.6602 1.57925 17.7251 1.595ZM 15.7354 3.73782L 15.9131 3.6774C 16.4761 3.46621 16.8023 3.01346 17.0098 2.62124L 15.854 3.01358C 15.7056 3.07388 15.5279 3.01358 15.4688 2.8627C 15.4092 2.7117 15.439 2.53067 15.5576 2.44009C 16.0318 2.04776 16.3872 1.62527 16.6543 1.17264C 16.0615 1.41397 15.5279 1.62527 15.083 1.77615C 14.9053 1.83645 14.7276 1.8063 14.5498 1.71585C 14.2237 1.5347 13.0972 0.900907 12.4155 0.931181C 10.6372 0.961332 9.21437 2.50052 9.21437 4.37161L 9.21437 5.21658L 8.85891 5.15628C 5.59865 4.55264 3.79055 3.6774 1.89357 1.77615C 1.00441 4.06973 2.84182 5.66934 3.46437 6.12198L 4.2051 6.66519L 3.28664 6.66519C 2.69387 6.66519 2.04152 6.60489 1.44875 6.33328C 2.10109 7.72146 3.43459 8.74759 4.56105 9.07962L 4.47219 9.68313C 4.34816 9.68313 4.22463 9.68313 4.1006 9.68741C 3.98732 9.69131 3.87404 9.69888 3.76076 9.71329C 3.1382 9.74356 2.57521 9.74356 2.04152 9.56241C 2.6343 10.7093 3.67189 11.1922 5.36135 11.1922L 6.25051 11.1922L 5.5093 11.7354C 4.59084 12.4596 3.40529 13.1236 1.35988 13.2746C 2.33791 13.7574 4.14601 14.2101 6.84328 14.2101C 11.4644 14.2101 15.7354 9.49905 15.7354 4.25088L 15.7354 3.73782Z"/>
</defs>
</svg>
