<svg width="7" height="14" viewBox="0 0 7 14" version="1.1" xmlns="http://www.w3.org/2000/svg" xmlns:xlink="http://www.w3.org/1999/xlink">
<title>world</title>
<desc>Created using Figma</desc>
<g id="Canvas" transform="translate(-4171 -1466)">
<rect x="4171" y="1466" width="7" height="14" fill="#F2F2F2"/>
<clipPath id="clip-0" clip-rule="evenodd">
<path d="M 4139 -502L 4907 -502L 4907 1856L 4139 1856L 4139 -502Z" fill="#FFFFFF"/>
</clipPath>
<g id="Restaurant / Tablet" clip-path="url(#clip-0)">
</g>
<g id="footer">
<g id="bg">
<use xlink:href="#path0_fill" transform="translate(4139 1304)" fill="#262626"/>
</g>
<g id="language">
<g id="Rectangle 9">
<use xlink:href="#path1_fill" transform="translate(4147 1453)" fill="#3B3B3B"/>
</g>
<g id="world">
<g id="Shape">
<use xlink:href="#path2_fill" transform="translate(4171.42 1466.2)" fill="#FFFFFF"/>
</g>
</g>
</g>
</g>
</g>
<defs>
<path id="path0_fill" fill-rule="evenodd" d="M 0 0L 768 0L 768 552L 0 552L 0 0Z"/>
<path id="path1_fill" fill-rule="evenodd" d="M 0 2C 0 0.895431 0.895431 0 2 0L 174 0C 175.105 0 176 0.895431 176 2L 176 38C 176 39.1046 175.105 40 174 40L 2 40C 0.895429 40 0 39.1046 0 38L 0 2Z"/>
<path id="path2_fill" fill-rule="evenodd" d="M 2.69092 4.23071C 2.22998 2.01538 0.842285 0.349487 0 0L 0 4.34302C 0.842285 4.33264 1.9502 4.28967 2.69092 4.23071ZM 5.60449 3.76721C 5.45117 3.81433 4.8291 3.98792 3.59863 4.13354C 3.3208 2.6571 2.81982 1.39893 2.1665 0.490601C 3.66455 1.13989 4.88281 2.30872 5.60449 3.76721ZM 1.57129 5.27417C 2.01855 5.25391 2.45264 5.22839 2.80615 5.1991C 2.87061 5.71729 2.88721 6.25366 2.88721 6.8053C 2.88721 6.99829 2.88525 7.18958 2.88037 7.37903C 2.87695 7.51892 2.87158 7.65784 2.86426 7.79553C 2.84521 8.15588 2.8125 8.5083 2.75732 8.85022C 1.98584 8.78784 0.842285 8.74292 0 8.73291L 0 5.32153C 0.462402 5.31555 1.02686 5.29883 1.57129 5.27417ZM 0 9.71143L 0 13.611C 0.842285 13.285 2.08887 11.8119 2.58887 9.81665C 2.46826 9.80737 2.33887 9.79858 2.20361 9.79028C 1.90527 9.77185 1.57666 9.75598 1.24268 9.74316C 0.821777 9.72717 0.391113 9.71619 0 9.71143ZM 2.1665 13.1205C 2.75537 12.302 3.22461 11.2034 3.51367 9.91296C 4.48193 10.0244 5.09131 10.1541 5.39893 10.2316C 4.65869 11.516 3.52539 12.5287 2.1665 13.1205ZM 3.74707 5.10095C 3.89453 6.37988 3.875 7.67273 3.68799 8.94653C 4.88281 9.08655 5.5625 9.25562 5.83301 9.33447C 6.14453 8.55078 6.32129 7.69885 6.32129 6.8053C 6.3208 5.92212 6.14941 5.04749 5.81592 4.22961L 5.97412 4.6759C 5.92969 4.69165 5.25977 4.91931 3.74707 5.10095Z"/>
</defs>
</svg>
